<svg width="20" height="20" viewBox="0 0 20 20" fill="none" xmlns="http://www.w3.org/2000/svg">
<path d="M6.75 0.75H1.75C1.19772 0.75 0.75 1.19772 0.75 1.75V6.75C0.75 7.30228 1.19772 7.75 1.75 7.75H6.75C7.30228 7.75 7.75 7.30228 7.75 6.75V1.75C7.75 1.19772 7.30228 0.75 6.75 0.75Z" stroke="#2D4835" stroke-width="1.5" stroke-linecap="round" stroke-linejoin="round"/>
<path d="M17.75 0.75H12.75C12.1977 0.75 11.75 1.19772 11.75 1.75V6.75C11.75 7.30228 12.1977 7.75 12.75 7.75H17.75C18.3023 7.75 18.75 7.30228 18.75 6.75V1.75C18.75 1.19772 18.3023 0.75 17.75 0.75Z" stroke="#2D4835" stroke-width="1.5" stroke-linecap="round" stroke-linejoin="round"/>
<path d="M17.75 11.75H12.75C12.1977 11.75 11.75 12.1977 11.75 12.75V17.75C11.75 18.3023 12.1977 18.75 12.75 18.75H17.75C18.3023 18.75 18.75 18.3023 18.75 17.75V12.75C18.75 12.1977 18.3023 11.75 17.75 11.75Z" stroke="#2D4835" stroke-width="1.5" stroke-linecap="round" stroke-linejoin="round"/>
<path d="M6.75 11.75H1.75C1.19772 11.75 0.75 12.1977 0.75 12.75V17.75C0.75 18.3023 1.19772 18.75 1.75 18.75H6.75C7.30228 18.75 7.75 18.3023 7.75 17.75V12.75C7.75 12.1977 7.30228 11.75 6.75 11.75Z" stroke="#2D4835" stroke-width="1.5" stroke-linecap="round" stroke-linejoin="round"/>
</svg>
