<svg width="22" height="22" viewBox="0 0 22 22" fill="none" xmlns="http://www.w3.org/2000/svg">
<path d="M14 21H4C3.46957 21 2.96086 20.7893 2.58579 20.4142C2.21071 20.0391 2 19.5304 2 19V5C2 4.46957 2.21071 3.96086 2.58579 3.58579C2.96086 3.21071 3.46957 3 4 3H18C18.5304 3 19.0391 3.21071 19.4142 3.58579C19.7893 3.96086 20 4.46957 20 5V15M14 21C14.3169 21.0008 14.6308 20.9388 14.9236 20.8176C15.2164 20.6964 15.4823 20.5185 15.706 20.294L19.294 16.706C19.5185 16.4823 19.6964 16.2164 19.8176 15.9236C19.9388 15.6308 20.0008 15.3169 20 15M14 21V16C14 15.7348 14.1054 15.4804 14.2929 15.2929C14.4804 15.1054 14.7348 15 15 15H20M7 1V5M15 1V5M2 9H20" stroke="#64A076" stroke-width="2" stroke-linecap="round" stroke-linejoin="round"/>
</svg>
