<svg width="33" height="33" viewBox="0 0 33 33" fill="none" xmlns="http://www.w3.org/2000/svg">
<path d="M21.0001 6.00067L27.0001 12.0008M30.2612 8.71874C31.0542 7.92585 31.4999 6.85039 31.5 5.72895C31.5001 4.6075 31.0548 3.53193 30.2619 2.73885C29.469 1.94577 28.3936 1.50014 27.2722 1.5C26.1507 1.49986 25.0752 1.94522 24.2821 2.7381L4.26293 22.7621C3.91465 23.1093 3.65709 23.5369 3.51292 24.0071L1.5314 30.5352C1.49263 30.665 1.48971 30.8028 1.52293 30.934C1.55615 31.0653 1.62428 31.1851 1.7201 31.2808C1.81591 31.3764 1.93584 31.4444 2.06714 31.4774C2.19845 31.5104 2.33625 31.5072 2.46591 31.4683L8.99547 29.4882C9.46523 29.3453 9.89274 29.0893 10.2405 28.7427L30.2612 8.71874Z" stroke="#488FDB" stroke-width="3" stroke-linecap="round" stroke-linejoin="round"/>
</svg>
