<svg width="22" height="22" viewBox="0 0 22 22" fill="none" xmlns="http://www.w3.org/2000/svg">
<path d="M14 20.5002V12.5002C14 12.235 13.8946 11.9807 13.7071 11.7931C13.5196 11.6056 13.2652 11.5002 13 11.5002H9C8.73478 11.5002 8.48043 11.6056 8.29289 11.7931C8.10536 11.9807 8 12.235 8 12.5002V20.5002M2 9.50024C1.99993 9.2093 2.06333 8.92186 2.18579 8.65795C2.30824 8.39405 2.4868 8.16003 2.709 7.97224L9.709 1.97224C10.07 1.66714 10.5274 1.49976 11 1.49976C11.4726 1.49976 11.93 1.66714 12.291 1.97224L19.291 7.97224C19.5132 8.16003 19.6918 8.39405 19.8142 8.65795C19.9367 8.92186 20.0001 9.2093 20 9.50024V18.5002C20 19.0307 19.7893 19.5394 19.4142 19.9144C19.0391 20.2895 18.5304 20.5002 18 20.5002H4C3.46957 20.5002 2.96086 20.2895 2.58579 19.9144C2.21071 19.5394 2 19.0307 2 18.5002V9.50024Z" stroke="#64A076" stroke-width="2" stroke-linecap="round" stroke-linejoin="round"/>
</svg>
