<svg width="43" height="38" viewBox="0 0 43 38" fill="none" xmlns="http://www.w3.org/2000/svg">
<path d="M1.5 12.8462C1.50004 10.5573 2.17518 8.32222 3.43626 6.4362C4.69734 4.55018 6.48502 3.10194 8.5632 2.28276C10.6414 1.46358 12.9123 1.31199 15.076 1.84802C17.2397 2.38405 19.1944 3.58248 20.6819 5.28503C20.7867 5.40024 20.9134 5.49209 21.0541 5.55489C21.1948 5.61769 21.3466 5.65009 21.4999 5.65009C21.6533 5.65009 21.8051 5.61769 21.9458 5.55489C22.0865 5.49209 22.2132 5.40024 22.3179 5.28503C23.8008 3.57142 25.756 2.36292 27.9232 1.82037C30.0904 1.27783 32.3669 1.42698 34.4496 2.24797C36.5324 3.06896 38.3226 4.52284 39.5821 6.41612C40.8416 8.3094 41.5105 10.5523 41.4999 12.8462C41.4999 17.5565 38.4999 21.0738 35.4999 24.1592L24.5159 35.0876C24.1433 35.5277 23.6838 35.8813 23.168 36.1249C22.6523 36.3684 22.092 36.4962 21.5245 36.4999C20.957 36.5036 20.3952 36.3831 19.8765 36.1463C19.3578 35.9095 18.894 35.5619 18.5159 35.1266L7.49998 24.1592C4.49999 21.0738 1.5 17.5771 1.5 12.8462Z" fill="#FEFDE4" stroke="#DB485E" stroke-width="3" stroke-linecap="round" stroke-linejoin="round"/>
</svg>
