<svg width="34" height="30" viewBox="0 0 34 30" fill="none" xmlns="http://www.w3.org/2000/svg">
<path d="M2 10.4286C2.00003 8.72827 2.50639 7.06793 3.4522 5.66689C4.398 4.26585 5.73876 3.19001 7.2974 2.58148C8.85603 1.97295 10.5592 1.86034 12.182 2.25853C13.8048 2.65673 15.2708 3.54699 16.3865 4.81173C16.465 4.89732 16.56 4.96556 16.6656 5.0122C16.7711 5.05885 16.8849 5.08293 17 5.08293C17.115 5.08293 17.2288 5.05885 17.3343 5.0122C17.4399 4.96556 17.5349 4.89732 17.6135 4.81173C18.7256 3.53877 20.192 2.64102 21.8174 2.23799C23.4428 1.83496 25.1502 1.94576 26.7122 2.55563C28.2743 3.16551 29.617 4.24554 30.5616 5.65198C31.5062 7.05841 32.0079 8.72454 31.9999 10.4286C31.9999 13.9277 29.7499 16.5406 27.4999 18.8326L19.2619 26.9508C18.9824 27.2778 18.6378 27.5404 18.251 27.7213C17.8642 27.9022 17.444 27.9972 17.0184 27.9999C16.5928 28.0027 16.1714 27.9131 15.7824 27.7372C15.3933 27.5614 15.0455 27.3032 14.762 26.9798L6.49999 18.8326C4.24999 16.5406 2 13.943 2 10.4286Z" stroke="#DB485E" stroke-width="4" stroke-linecap="round" stroke-linejoin="round"/>
</svg>
