<svg width="14" height="19" viewBox="0 0 14 19" fill="none" xmlns="http://www.w3.org/2000/svg">
<path d="M7 13.75V18M4.42857 8.446C4.4284 8.76227 4.33927 9.07223 4.17119 9.34101C4.00311 9.6098 3.76275 9.82676 3.47714 9.9675L1.95143 10.7325C1.66582 10.8732 1.42546 11.0902 1.25738 11.359C1.0893 11.6278 1.00017 11.9377 1 12.254V12.9C1 13.1254 1.09031 13.3416 1.25105 13.501C1.4118 13.6604 1.62981 13.75 1.85714 13.75H12.1429C12.3702 13.75 12.5882 13.6604 12.7489 13.501C12.9097 13.3416 13 13.1254 13 12.9V12.254C12.9998 11.9377 12.9107 11.6278 12.7426 11.359C12.5745 11.0902 12.3342 10.8732 12.0486 10.7325L10.5229 9.9675C10.2372 9.82676 9.99689 9.6098 9.82881 9.34101C9.66073 9.07223 9.5716 8.76227 9.57143 8.446V5.25C9.57143 5.02457 9.66173 4.80837 9.82248 4.64896C9.98323 4.48955 10.2012 4.4 10.4286 4.4C10.8832 4.4 11.3193 4.22089 11.6408 3.90208C11.9622 3.58327 12.1429 3.15087 12.1429 2.7C12.1429 2.24913 11.9622 1.81673 11.6408 1.49792C11.3193 1.17911 10.8832 1 10.4286 1H3.57143C3.11677 1 2.68074 1.17911 2.35925 1.49792C2.03775 1.81673 1.85714 2.24913 1.85714 2.7C1.85714 3.15087 2.03775 3.58327 2.35925 3.90208C2.68074 4.22089 3.11677 4.4 3.57143 4.4C3.79876 4.4 4.01677 4.48955 4.17752 4.64896C4.33827 4.80837 4.42857 5.02457 4.42857 5.25V8.446Z" stroke="#546881" stroke-width="2" stroke-linecap="round" stroke-linejoin="round"/>
</svg>
