<svg width="22" height="22" viewBox="0 0 22 22" fill="none" xmlns="http://www.w3.org/2000/svg">
<path d="M6.50134 7.00146C6.77755 7.00146 7.00146 6.77755 7.00146 6.50134C7.00146 6.22513 6.77755 6.00122 6.50134 6.00122C6.22513 6.00122 6.00122 6.22513 6.00122 6.50134C6.00122 6.77755 6.22513 7.00146 6.50134 7.00146Z" fill="#64A076"/>
<path d="M11.5886 1.58614C11.2135 1.21095 10.7048 1.00011 10.1742 1H3.00049C2.46992 1 1.96109 1.21076 1.58593 1.58593C1.21076 1.96109 1 2.46992 1 3.00049V10.1742C1.00011 10.7048 1.21095 11.2135 1.58614 11.5886L10.2923 20.2947C10.7469 20.7464 11.3618 21 12.0027 21C12.6436 21 13.2585 20.7464 13.7131 20.2947L20.2947 13.7131C20.7464 13.2585 21 12.6436 21 12.0027C21 11.3618 20.7464 10.7469 20.2947 10.2923L11.5886 1.58614Z" stroke="#64A076" stroke-width="2" stroke-linecap="round" stroke-linejoin="round"/>
<path d="M6.50134 7.00146C6.77755 7.00146 7.00146 6.77755 7.00146 6.50134C7.00146 6.22513 6.77755 6.00122 6.50134 6.00122C6.22513 6.00122 6.00122 6.22513 6.00122 6.50134C6.00122 6.77755 6.22513 7.00146 6.50134 7.00146Z" stroke="#64A076" stroke-width="2" stroke-linecap="round" stroke-linejoin="round"/>
</svg>
