<svg width="33" height="33" viewBox="0 0 33 33" fill="none" xmlns="http://www.w3.org/2000/svg">
<path fill-rule="evenodd" clip-rule="evenodd" d="M16.1492 20.7492C16.1827 20.7497 16.2163 20.75 16.25 20.75C16.2835 20.75 16.3169 20.7497 16.3503 20.7492C16.3164 20.7488 16.2825 20.7486 16.2486 20.7486C16.2155 20.7486 16.1823 20.7488 16.1492 20.7492Z" fill="#546881"/>
<path d="M25.25 28.2511C24.9133 26.1358 23.7208 24.2929 22.0915 22.9025C20.488 21.5342 18.456 20.7728 16.3503 20.7492M25.7914 27.8247C25.6143 27.9709 25.4338 28.1131 25.25 28.2511C22.743 30.1342 19.6268 31.25 16.25 31.25M7.36126 28.3339C7.69786 26.2192 8.77742 24.2938 10.4061 22.9035C12.0099 21.5344 14.0427 20.7726 16.1492 20.7492M16.25 31.25C19.8744 31.25 23.1985 29.9646 25.7914 27.8247C29.1251 25.0735 31.25 20.9099 31.25 16.25C31.25 7.96573 24.5343 1.25 16.25 1.25C7.96573 1.25 1.25 7.96573 1.25 16.25C1.25 21.2072 3.65471 25.6028 7.36126 28.3339C9.84891 30.1668 12.923 31.25 16.25 31.25ZM16.1492 20.7492C12.882 20.6954 10.25 18.03 10.25 14.75C10.25 11.4363 12.9363 8.75 16.25 8.75C19.5637 8.75 22.25 11.4363 22.25 14.75C22.25 18.0302 19.6177 20.6956 16.3503 20.7492M16.1492 20.7492C16.1827 20.7497 16.2163 20.75 16.25 20.75C16.2835 20.75 16.3169 20.7497 16.3503 20.7492M16.1492 20.7492C16.1823 20.7488 16.2155 20.7486 16.2486 20.7486C16.2825 20.7486 16.3164 20.7488 16.3503 20.7492" stroke="#546881" stroke-width="2.5" stroke-linecap="round" stroke-linejoin="round"/>
</svg>
