<svg width="22" height="22" viewBox="0 0 22 22" fill="none" xmlns="http://www.w3.org/2000/svg">
<path d="M14 12.5002V20.5002H18C18.5304 20.5002 19.0391 20.2895 19.4142 19.9144C19.7893 19.5394 20 19.0307 20 18.5002V9.50024C20.0001 9.2093 19.9367 8.92186 19.8142 8.65795C19.6918 8.39405 19.5132 8.16003 19.291 7.97224L12.291 1.97224C11.93 1.66714 11.4726 1.49976 11 1.49976C10.5274 1.49976 10.07 1.66714 9.709 1.97224L2.709 7.97224C2.4868 8.16003 2.30824 8.39405 2.18579 8.65795C2.06333 8.92186 1.99993 9.2093 2 9.50024V18.5002C2 19.0307 2.21071 19.5394 2.58579 19.9144C2.96086 20.2895 3.46957 20.5002 4 20.5002H8V12.5002C8 12.235 8.10536 11.9807 8.29289 11.7931C8.48043 11.6056 8.73478 11.5002 9 11.5002H13C13.2652 11.5002 13.5196 11.6056 13.7071 11.7931C13.8946 11.9807 14 12.235 14 12.5002Z" fill="#64A076"/>
<path d="M18 20.5002C18.5304 20.5002 19.0391 20.2895 19.4142 19.9144C19.7893 19.5394 20 19.0307 20 18.5002V9.50024C20.0001 9.2093 19.9367 8.92186 19.8142 8.65795C19.6918 8.39405 19.5132 8.16003 19.291 7.97224L12.291 1.97224C11.93 1.66714 11.4726 1.49976 11 1.49976C10.5274 1.49976 10.07 1.66714 9.709 1.97224L2.709 7.97224C2.4868 8.16003 2.30824 8.39405 2.18579 8.65795C2.06333 8.92186 1.99993 9.2093 2 9.50024V18.5002C2 19.0307 2.21071 19.5394 2.58579 19.9144C2.96086 20.2895 3.46957 20.5002 4 20.5002M18 20.5002H4M18 20.5002H14V12.5002C14 12.235 13.8946 11.9807 13.7071 11.7931C13.5196 11.6056 13.2652 11.5002 13 11.5002H9C8.73478 11.5002 8.48043 11.6056 8.29289 11.7931C8.10536 11.9807 8 12.235 8 12.5002V20.5002H4" stroke="#64A076" stroke-width="2" stroke-linecap="round" stroke-linejoin="round"/>
</svg>
