<svg width="22" height="22" viewBox="0 0 22 22" fill="none" xmlns="http://www.w3.org/2000/svg">
<path d="M10.1748 0C10.9704 0.000265089 11.7334 0.316291 12.2959 0.878906L21.0039 9.58691C21.6418 10.2289 22 11.0979 22 12.0029C21.9999 12.9079 21.6418 13.7761 21.0039 14.418L14.418 21.0039C13.7761 21.6418 12.9079 21.9999 12.0029 22C11.0979 22 10.2289 21.6418 9.58691 21.0039L0.878906 12.2959C0.316291 11.7334 0.000265089 10.9704 0 10.1748V3C0.000128843 2.2044 0.31632 1.44149 0.878906 0.878906C1.44149 0.31632 2.2044 0.000128843 3 0H10.1748ZM6.5 5C5.6716 5.00007 5.00007 5.6716 5 6.5C5 7.32845 5.67156 7.99993 6.5 8C7.3285 8 8 7.32849 8 6.5C7.99993 5.67156 7.32845 5 6.5 5Z" fill="#64A076"/>
</svg>
